<?xml version="1.0" encoding="iso-8859-1"?>
<!-- Generator: Adobe Illustrator 21.1.0, SVG Export Plug-In . SVG Version: 6.00 Build 0)  -->
<svg version="1.1" id="Layer_1" xmlns="http://www.w3.org/2000/svg" xmlns:xlink="http://www.w3.org/1999/xlink" x="0px" y="0px"
	 viewBox="0 0 100.75 100.749" style="enable-background:new 0 0 100.75 100.749;" xml:space="preserve">
<g>
	<path d="M95.9,27.729H83.547v-5.703c0-0.829-0.672-1.5-1.5-1.5h-17.06c-0.828,0-1.5,0.671-1.5,1.5v5.703H37.26v-5.703
		c0-0.829-0.671-1.5-1.5-1.5H18.7c-0.829,0-1.5,0.671-1.5,1.5v5.703H4.1c-0.829,0-1.5,0.671-1.5,1.5v51.975
		c0,0.828,0.671,1.5,1.5,1.5h91.8c0.828,0,1.5-0.672,1.5-1.5V29.229C97.4,28.4,96.729,27.729,95.9,27.729z M66.487,23.526h14.06
		v4.203h-14.06V23.526z M20.2,23.526h14.06v4.203H20.2V23.526z M94.4,79.704H5.6V30.729h88.8V79.704z"/>
	<path d="M18.7,56.717h17.06c0.829,0,1.5-0.672,1.5-1.5s-0.671-1.5-1.5-1.5H18.7c-0.829,0-1.5,0.672-1.5,1.5
		S17.872,56.717,18.7,56.717z"/>
	<path d="M64.987,56.717h7.029v7.03c0,0.828,0.672,1.5,1.5,1.5s1.5-0.672,1.5-1.5v-7.03h7.03c0.828,0,1.5-0.672,1.5-1.5
		s-0.672-1.5-1.5-1.5h-7.03v-7.03c0-0.829-0.672-1.5-1.5-1.5s-1.5,0.671-1.5,1.5v7.03h-7.029c-0.828,0-1.5,0.672-1.5,1.5
		S64.159,56.717,64.987,56.717z"/>
</g>
</svg>
