<?xml version="1.0" encoding="iso-8859-1"?>
<!-- Generator: Adobe Illustrator 21.1.0, SVG Export Plug-In . SVG Version: 6.00 Build 0)  -->
<svg version="1.1" id="Layer_1" xmlns="http://www.w3.org/2000/svg" xmlns:xlink="http://www.w3.org/1999/xlink" x="0px" y="0px"
	 viewBox="0 0 100.75 100.749" style="enable-background:new 0 0 100.75 100.749;" xml:space="preserve">
<g>
	<path d="M75.651,9.501H42.317c-0.472,0-0.917,0.222-1.2,0.6L21.122,36.772c-0.195,0.26-0.3,0.576-0.3,0.9v27.224
		c0,0.828,0.671,1.5,1.5,1.5c24.817,0,25.163,23.6,25.165,24.604c0.002,0.827,0.673,1.498,1.5,1.498h26.665
		c0.828,0,1.5-0.672,1.5-1.5V11.001C77.151,10.172,76.479,9.501,75.651,9.501z M74.151,89.498H50.398
		c-0.507-5.636-3.906-25.246-26.577-26.075V38.172l19.245-25.671h31.084V89.498z"/>
	<path d="M30.049,38.163c0.253,0.51,0.774,0.833,1.343,0.833h37.216c0.828,0,1.5-0.671,1.5-1.5V18.136c0-0.829-0.672-1.5-1.5-1.5
		h-22.55c-0.47,0-0.912,0.22-1.196,0.594L30.196,36.589C29.853,37.043,29.795,37.653,30.049,38.163z M46.804,19.636h20.305v16.359
		H34.41L46.804,19.636z"/>
	<path d="M68.608,44.646h-8.884c-0.828,0-1.5,0.671-1.5,1.5s0.672,1.5,1.5,1.5h8.884c0.828,0,1.5-0.671,1.5-1.5
		S69.437,44.646,68.608,44.646z"/>
</g>
</svg>
