<?xml version="1.0" encoding="utf-8"?>
<!-- Generator: Adobe Illustrator 21.1.0, SVG Export Plug-In . SVG Version: 6.00 Build 0)  -->
<svg version="1.1" id="Layer_1" xmlns="http://www.w3.org/2000/svg" xmlns:xlink="http://www.w3.org/1999/xlink" x="0px" y="0px"
	 viewBox="0 0 100.8 100.7" style="enable-background:new 0 0 100.8 100.7;" xml:space="preserve">
<g>
	<path d="M71.7,70C71.7,70,71.7,70,71.7,70l-7-11.1c-0.3-0.4-0.8-0.7-1.3-0.7h-4.9c-0.8,0-1.5,0.7-1.5,1.5v10.3H26.7
		c-4,0-7.2,3.2-7.2,7.2V83c0,4,3.2,7.2,7.2,7.2h2.2c0.5,3.6,3.6,6.4,7.3,6.4c3.7,0,6.8-2.8,7.3-6.4c0,0,0.1,0,0.1,0h18.1
		c0.5,3.6,3.6,6.3,7.3,6.3c3.7,0,6.8-2.8,7.3-6.4h3.2c4,0,7.2-3.2,7.2-7.2C86.9,75.9,78.2,70.6,71.7,70z M60,61.2h2.6l5.5,8.8H60
		V61.2z M36.2,93.5c-2.4,0-4.4-2-4.4-4.4s2-4.4,4.4-4.4s4.4,2,4.4,4.4S38.6,93.5,36.2,93.5z M69.1,93.5c-2.4,0-4.4-2-4.4-4.4
		s2-4.4,4.4-4.4c2.4,0,4.4,2,4.4,4.4S71.5,93.5,69.1,93.5z M79.6,87.2h-3.4c-0.9-3.1-3.7-5.5-7.1-5.5c-3.4,0-6.3,2.3-7.1,5.5H43.6
		c-0.1,0-0.2,0-0.3,0c-0.8-3.2-3.7-5.5-7.2-5.5c-3.4,0-6.3,2.3-7.1,5.5h-2.4c-2.3,0-4.2-1.9-4.2-4.2v-5.8c0-2.3,1.9-4.2,4.2-4.2
		h43.7c5.9,0,13.5,4.9,13.5,10C83.9,85.3,82,87.2,79.6,87.2z"/>
	<path d="M10.2,32.9c-0.1-0.4-0.4-0.7-0.7-0.9c-0.4-0.2-0.8-0.2-1.1-0.1l-7.1,2.3c-0.8,0.3-1.2,1.1-1,1.9c0.3,0.8,1.1,1.2,1.9,1
		L5.5,36c-2,5.3-3,10.8-3,16.5c0,6.8,1.4,13.3,4.2,19.4c0.3,0.6,0.8,0.9,1.4,0.9c0.2,0,0.4,0,0.6-0.1c0.8-0.3,1.1-1.2,0.7-2
		c-2.6-5.7-3.9-11.8-3.9-18.2c0-5.4,1-10.6,2.8-15.5l1.3,4c0.2,0.6,0.8,1,1.4,1c0.2,0,0.3,0,0.5-0.1c0.8-0.3,1.2-1.1,1-1.9
		L10.2,32.9z"/>
	<path d="M99.6,68.2c-0.4-0.7-1.3-1-2-0.7l-3.4,1.7c2.1-5.3,3.1-11,3.1-16.8c0-6.8-1.4-13.3-4.2-19.4c-0.3-0.8-1.2-1.1-2-0.7
		c-0.8,0.3-1.1,1.2-0.7,2c2.6,5.7,3.9,11.8,3.9,18.1c0,5.5-1,10.9-3,16l-1.8-3.6c-0.4-0.7-1.3-1-2-0.7c-0.7,0.4-1,1.3-0.7,2l3.4,6.7
		c0.2,0.4,0.5,0.6,0.9,0.8c0.2,0.1,0.3,0.1,0.5,0.1c0.2,0,0.5-0.1,0.7-0.2l6.7-3.4C99.7,69.9,100,69,99.6,68.2z"/>
</g>
<path d="M81,32.4c0.9,0,1.6-0.7,1.7-1.6l0.2-9.6c0-0.7-0.4-1.3-1-1.5l-15.2-6.8l-5.9-9.5c-0.3-0.5-0.8-0.8-1.4-0.8H37.9
	c-0.6,0-1.1,0.3-1.4,0.8l-6.2,10h-8.8c-0.9,0-1.7,0.7-1.7,1.7v15.8c0,0.9,0.7,1.7,1.7,1.7h6c0.6,3.3,3.5,5.8,7,5.8s6.4-2.5,7-5.8
	h16.2c0.6,3.3,3.5,5.8,7,5.8c3.5,0,6.4-2.5,7-5.8C71.4,32.4,81,32.4,81,32.4z M23.1,16.6h7.8H31h0.1c0.6,0,1.1-0.3,1.4-0.8l6.2-10
	h19.6l5.7,9.1l0,0c0.1,0.1,0.1,0.2,0.2,0.3l0.1,0.1l0.1,0.1c0.1,0.1,0.2,0.1,0.3,0.2l0,0l14.7,6.5L79.3,29h-8.1
	c-0.9-2.9-3.6-5-6.8-5c-3.2,0-5.9,2.1-6.8,5H41.2c-0.9-2.9-3.6-5-6.8-5s-5.9,2.1-6.8,5h-4.5V16.6L23.1,16.6z M34.4,34.8
	c-2.1,0-3.7-1.7-3.7-3.7c0-2.1,1.7-3.7,3.7-3.7s3.7,1.7,3.7,3.7C38.1,33.2,36.5,34.8,34.4,34.8z M64.5,34.8c-2.1,0-3.7-1.7-3.7-3.7
	c0-2.1,1.7-3.7,3.7-3.7c2.1,0,3.7,1.7,3.7,3.7C68.2,33.2,66.5,34.8,64.5,34.8z"/>
</svg>
