<?xml version="1.0" encoding="iso-8859-1"?>
<!-- Generator: Adobe Illustrator 21.1.0, SVG Export Plug-In . SVG Version: 6.00 Build 0)  -->
<svg version="1.1" id="Layer_1" xmlns="http://www.w3.org/2000/svg" xmlns:xlink="http://www.w3.org/1999/xlink" x="0px" y="0px"
	 viewBox="0 0 100.75 100.749" style="enable-background:new 0 0 100.75 100.749;" xml:space="preserve">
<g>
	<path d="M79.579,58.665c-0.023-0.084-0.051-0.168-0.09-0.249l-9.056-18.935c-0.25-0.521-0.775-0.853-1.354-0.853H31.513
		c-0.58,0-1.107,0.334-1.355,0.858l-8.97,18.935c-0.003,0.007-0.004,0.014-0.008,0.021c-4.633,1.195-8.071,5.397-8.071,10.398v6.664
		c0,4.872,3.261,8.992,7.713,10.306v9.646c0,1.815,1.688,3.293,3.763,3.293h4.694c2.075,0,3.763-1.478,3.763-3.293v-9.202h34.596
		v9.202c0,1.815,1.688,3.293,3.764,3.293h4.693c2.075,0,3.764-1.478,3.764-3.293v-9.878c1.435-0.532,2.757-1.363,3.875-2.482
		c2.036-2.035,3.157-4.732,3.156-7.593v-6.664C86.89,64.117,83.823,60.104,79.579,58.665z M32.462,41.628h35.672l7.873,16.463
		H24.664L32.462,41.628z M30.044,95.442c-0.03,0.088-0.303,0.308-0.765,0.308h-4.694c-0.462,0-0.734-0.221-0.763-0.293v-9.204
		c0.013,0,0.025,0.002,0.037,0.002h6.183L30.044,95.442z M76.86,95.442c-0.03,0.087-0.304,0.308-0.766,0.308h-4.693
		c-0.462,0-0.735-0.221-0.764-0.293v-9.202h5.503c0.241,0,0.479-0.019,0.718-0.035L76.86,95.442z M83.89,75.505
		c0,2.06-0.809,4.003-2.277,5.472c-1.469,1.47-3.412,2.278-5.472,2.278H23.859c-4.273,0-7.75-3.477-7.75-7.75v-6.664
		c0-4.273,3.477-7.75,7.75-7.75H76.14c4.273,0,7.75,3.477,7.75,7.75V75.505z"/>
	<path d="M26.932,66.284c-3.247,0-5.889,2.642-5.889,5.889c0,3.248,2.642,5.89,5.889,5.89s5.889-2.642,5.889-5.89
		C32.821,68.926,30.179,66.284,26.932,66.284z M26.932,75.062c-1.593,0-2.889-1.296-2.889-2.89c0-1.593,1.296-2.889,2.889-2.889
		c1.593,0,2.889,1.296,2.889,2.889C29.821,73.767,28.525,75.062,26.932,75.062z"/>
	<path d="M73.748,65.911c-3.247,0-5.889,2.642-5.889,5.889c0,3.248,2.642,5.89,5.889,5.89s5.889-2.642,5.889-5.89
		C79.637,68.553,76.995,65.911,73.748,65.911z M73.748,74.689c-1.593,0-2.889-1.296-2.889-2.89c0-1.593,1.296-2.889,2.889-2.889
		s2.889,1.296,2.889,2.889C76.637,73.394,75.341,74.689,73.748,74.689z"/>
	<path d="M56.791,73.212H43.209c-0.829,0-1.5,0.672-1.5,1.5s0.671,1.5,1.5,1.5h13.582c0.828,0,1.5-0.672,1.5-1.5
		S57.619,73.212,56.791,73.212z"/>
	<path d="M50,27.431c4.183,0,7.585-3.403,7.585-7.586c0-3.523-5.191-14.566-6.231-16.744C51.104,2.58,50.578,2.248,50,2.248
		c-0.578,0-1.104,0.332-1.354,0.853c-1.041,2.178-6.232,13.221-6.232,16.744C42.414,24.028,45.817,27.431,50,27.431z M50,7.312
		c2.145,4.748,4.585,10.732,4.585,12.533c0,2.529-2.057,4.586-4.585,4.586c-2.529,0-4.586-2.057-4.586-4.586
		C45.414,18.044,47.855,12.06,50,7.312z"/>
	<path d="M20.694,27.431c4.183,0,7.586-3.403,7.586-7.586c0-3.523-5.191-14.566-6.231-16.744c-0.249-0.521-0.775-0.854-1.354-0.854
		c-0.578,0-1.104,0.332-1.354,0.853c-1.041,2.178-6.233,13.221-6.233,16.744C13.108,24.028,16.511,27.431,20.694,27.431z
		 M20.695,7.312c2.145,4.749,4.585,10.733,4.585,12.534c0,2.529-2.057,4.586-4.586,4.586s-4.586-2.057-4.586-4.586
		C16.108,18.044,18.549,12.06,20.695,7.312z"/>
	<path d="M79.363,27.431c4.183,0,7.586-3.403,7.586-7.586c0-3.523-5.191-14.566-6.232-16.744c-0.249-0.521-0.775-0.853-1.354-0.853
		S78.259,2.58,78.01,3.102c-1.04,2.178-6.231,13.221-6.231,16.744C71.778,24.028,75.181,27.431,79.363,27.431z M79.363,7.312
		c2.146,4.748,4.586,10.731,4.586,12.533c0,2.529-2.058,4.586-4.586,4.586s-4.585-2.057-4.585-4.586
		C74.778,18.044,77.219,12.06,79.363,7.312z"/>
</g>
</svg>
