<?xml version="1.0" encoding="iso-8859-1"?>
<!-- Generator: Adobe Illustrator 21.1.0, SVG Export Plug-In . SVG Version: 6.00 Build 0)  -->
<svg version="1.1" id="Layer_1" xmlns="http://www.w3.org/2000/svg" xmlns:xlink="http://www.w3.org/1999/xlink" x="0px" y="0px"
	 viewBox="0 0 100.766 100.749" style="enable-background:new 0 0 100.766 100.749;" xml:space="preserve">
<path d="M90.898,22.342h-5.93v-0.033c0-2.159-1.756-3.915-3.915-3.915H67.012c-2.159,0-3.915,1.756-3.915,3.915v0.033H38.913v-0.033
	c0-2.159-1.756-3.915-3.915-3.915H20.956c-2.159,0-3.915,1.756-3.915,3.915v0.033H9.287c-4.785,0-8.678,4.578-8.678,10.205v34.905
	c0,5.627,3.893,10.205,8.678,10.205h7.754v0.033c0,2.159,1.756,3.915,3.915,3.915h14.042c2.159,0,3.915-1.756,3.915-3.915v-0.033
	h24.184v0.033c0,2.159,1.756,3.915,3.915,3.915h14.043c2.158,0,3.914-1.756,3.914-3.915v-0.033h5.93
	c4.785,0,8.678-4.578,8.678-10.205V32.547C99.576,26.92,95.684,22.342,90.898,22.342z M66.097,22.309
	c0-0.504,0.41-0.915,0.915-0.915h14.042c0.505,0,0.915,0.411,0.915,0.915v3.066c0,0.504-0.41,0.915-0.914,0.915H67.012
	c-0.505,0-0.915-0.411-0.915-0.915V22.309z M74.034,52.426c-1.519,0-2.754-1.235-2.754-2.754s1.235-2.754,2.754-2.754
	s2.754,1.235,2.754,2.754S75.553,52.426,74.034,52.426z M63.097,25.342v0.033c0,2.159,1.756,3.915,3.915,3.915h5.522v14.833
	c-1.967,0.533-3.516,2.081-4.049,4.049H35.549v-4.571c0-0.829-0.671-1.5-1.5-1.5h-4.572V29.29h5.521
	c2.159,0,3.915-1.756,3.915-3.915v-0.033H63.097z M23.406,54.244v-9.143h9.143v4.561c0,0.003-0.001,0.006-0.001,0.01
	s0.001,0.006,0.001,0.01v4.563H23.406z M20.041,22.309c0-0.504,0.411-0.915,0.915-0.915h14.042c0.504,0,0.915,0.411,0.915,0.915
	v3.066c0,0.504-0.411,0.915-0.915,0.915H20.956c-0.504,0-0.915-0.411-0.915-0.915V22.309z M9.287,74.657
	c-3.131,0-5.678-3.232-5.678-7.205V32.547c0-3.973,2.547-7.205,5.678-7.205h7.754v0.033c0,2.159,1.756,3.915,3.915,3.915h5.521
	v12.811h-4.571c-0.829,0-1.5,0.671-1.5,1.5v12.143c0,0.828,0.671,1.5,1.5,1.5h4.571v13.465h-5.521c-2.159,0-3.915,1.756-3.915,3.915
	v0.033H9.287z M35.913,77.69c0,0.505-0.411,0.915-0.915,0.915H20.956c-0.504,0-0.915-0.41-0.915-0.915v-3.066
	c0-0.505,0.411-0.915,0.915-0.915h14.042c0.504,0,0.915,0.41,0.915,0.915V77.69z M38.913,74.657v-0.033
	c0-2.159-1.756-3.915-3.915-3.915h-5.521V57.244h4.572c0.829,0,1.5-0.672,1.5-1.5v-4.572h32.937
	c0.533,1.967,2.081,3.516,4.049,4.049v15.488h-5.522c-2.159,0-3.915,1.756-3.915,3.915v0.033H38.913z M81.969,77.69
	c0,0.505-0.41,0.915-0.914,0.915H67.012c-0.505,0-0.915-0.41-0.915-0.915v-3.066c0-0.505,0.41-0.915,0.915-0.915h14.042
	c0.505,0,0.915,0.41,0.915,0.915V77.69z M96.576,67.452c0,3.973-2.547,7.205-5.678,7.205h-5.93v-0.033
	c0-2.159-1.756-3.915-3.915-3.915h-5.52V55.221c2.447-0.662,4.254-2.895,4.254-5.549s-1.807-4.886-4.254-5.549V29.29h5.521
	c2.158,0,3.914-1.756,3.914-3.915v-0.033h5.93c3.131,0,5.678,3.232,5.678,7.205V67.452z"/>
</svg>
