<?xml version="1.0" encoding="iso-8859-1"?>
<!-- Generator: Adobe Illustrator 21.1.0, SVG Export Plug-In . SVG Version: 6.00 Build 0)  -->
<svg version="1.1" id="Layer_1" xmlns="http://www.w3.org/2000/svg" xmlns:xlink="http://www.w3.org/1999/xlink" x="0px" y="0px"
	 viewBox="0 0 100.75 100.749" style="enable-background:new 0 0 100.75 100.749;" xml:space="preserve">
<path d="M96.079,31.468c-13.438-9.867-29.38-15.082-46.102-15.082c-16.719,0-32.659,5.214-46.097,15.078
	c-0.622,0.457-0.796,1.311-0.402,1.975l19.949,33.604c0.229,0.387,0.62,0.649,1.064,0.717c0.443,0.071,0.895-0.067,1.229-0.367
	c2.195-1.975,4.604-3.652,7.164-5.021c1.402,3.435,1.351,7.425-0.191,10.804c-1.464,3.209-2.237,6.831-2.237,10.478v5.014
	c0,0.828,0.671,1.5,1.5,1.5s1.5-0.672,1.5-1.5v-5.014c0-3.22,0.68-6.412,1.967-9.231c1.908-4.18,1.949-9.13,0.165-13.36
	c3.799-1.642,7.873-2.622,12.057-2.89c0.346,1.261,0.789,2.486,1.328,3.654c1.639,3.55,1.648,7.793,0.024,11.35
	c-1.464,3.209-2.237,6.831-2.237,10.478v5.014c0,0.828,0.671,1.5,1.5,1.5s1.5-0.672,1.5-1.5v-5.014c0-3.22,0.68-6.412,1.967-9.231
	c1.981-4.342,1.971-9.521-0.029-13.854c-0.366-0.792-0.675-1.617-0.94-2.462c4.998,0.107,9.867,1.237,14.335,3.286
	c0.063,0.144,0.12,0.291,0.185,0.433c1.639,3.549,1.647,7.792,0.024,11.35c-1.464,3.208-2.237,6.831-2.237,10.478v5.014
	c0,0.828,0.672,1.5,1.5,1.5s1.5-0.672,1.5-1.5v-5.014c0-3.22,0.68-6.412,1.966-9.231c1.555-3.407,1.865-7.323,0.968-10.946
	c1.847,1.139,3.601,2.446,5.236,3.918c0.277,0.249,0.636,0.385,1.004,0.385c0.075,0,0.15-0.006,0.226-0.017
	c0.444-0.068,0.835-0.331,1.064-0.718l19.953-33.601C96.875,32.779,96.701,31.925,96.079,31.468z M74.86,63.977
	c-2.302-1.887-4.797-3.488-7.43-4.794c-0.893-2.386-1.366-4.986-1.366-7.61v-6.716l2.225,3.407c0.453,0.693,1.384,0.889,2.076,0.436
	c0.693-0.453,0.889-1.382,0.436-2.076l-4.98-7.627c-0.002-0.003-0.004-0.004-0.006-0.007c-0.063-0.095-0.137-0.18-0.219-0.258
	c-0.023-0.022-0.048-0.039-0.072-0.059c-0.063-0.053-0.129-0.101-0.201-0.143c-0.031-0.018-0.063-0.035-0.095-0.052
	c-0.073-0.036-0.149-0.065-0.228-0.089c-0.031-0.01-0.061-0.021-0.093-0.029c-0.11-0.026-0.224-0.043-0.343-0.043
	c-0.118,0-0.232,0.017-0.343,0.043c-0.032,0.008-0.062,0.019-0.093,0.029c-0.079,0.024-0.155,0.053-0.228,0.089
	c-0.033,0.016-0.064,0.033-0.095,0.052c-0.071,0.042-0.137,0.09-0.2,0.143c-0.024,0.02-0.049,0.038-0.072,0.06
	c-0.082,0.078-0.156,0.163-0.219,0.258c-0.002,0.003-0.004,0.004-0.006,0.007l-4.982,7.627c-0.453,0.693-0.258,1.623,0.436,2.076
	c0.253,0.166,0.537,0.244,0.819,0.244c0.489,0,0.969-0.239,1.257-0.68l2.227-3.408v6.717c0,2.045,0.259,4.08,0.745,6.036
	c-4.362-1.641-9.017-2.511-13.768-2.518c-0.186-1.157-0.282-2.335-0.282-3.518v-6.717l2.226,3.408c0.288,0.44,0.768,0.68,1.257,0.68
	c0.281,0,0.566-0.079,0.819-0.244c0.693-0.453,0.889-1.382,0.436-2.076l-4.981-7.627c-0.277-0.424-0.75-0.68-1.256-0.68
	s-0.979,0.256-1.256,0.68l-4.982,7.627c-0.453,0.693-0.258,1.623,0.436,2.076c0.694,0.454,1.624,0.258,2.076-0.436l2.226-3.408
	v6.717c0,1.22,0.096,2.435,0.271,3.634c-4.345,0.325-8.573,1.367-12.529,3.064c-0.685-2.13-1.046-4.405-1.046-6.698v-6.716
	l2.225,3.407c0.288,0.44,0.768,0.68,1.257,0.68c0.281,0,0.566-0.079,0.819-0.244c0.693-0.453,0.889-1.382,0.436-2.076l-4.981-7.627
	c-0.001-0.002-0.004-0.004-0.005-0.006c-0.268-0.406-0.728-0.674-1.251-0.674s-0.982,0.268-1.251,0.674
	c-0.001,0.002-0.004,0.004-0.005,0.006l-4.981,7.627c-0.453,0.694-0.258,1.623,0.436,2.076c0.695,0.454,1.624,0.258,2.076-0.436
	l2.225-3.407v6.716c0,2.738,0.453,5.458,1.315,7.993c-2.355,1.233-4.595,2.704-6.677,4.41L6.759,33.087
	c12.685-8.968,27.598-13.701,43.218-13.701c15.624,0,30.539,4.734,43.224,13.706L74.86,63.977z"/>
</svg>
